<?xml version="1.0" encoding="iso-8859-1"?>
<!-- Uploaded to: SVG Repo, www.svgrepo.com, Generator: SVG Repo Mixer Tools -->
<svg fill="#000000" height="800px" width="800px" version="1.1" id="Layer_1" xmlns="http://www.w3.org/2000/svg" xmlns:xlink="http://www.w3.org/1999/xlink" 
	 viewBox="0 0 512.001 512.001" xml:space="preserve">
<g>
	<g>
		<g>
			<path d="M247.756,312.916h0.256c5.892,0,10.667-4.778,10.667-10.667c0-5.892-4.776-10.667-10.667-10.667h-0.256
				c-5.892,0-10.667,4.776-10.667,10.667C237.088,308.139,241.864,312.916,247.756,312.916z"/>
			<path d="M137.788,312.911h79.322c5.891,0,10.667-4.777,10.667-10.667c0-5.892-4.777-10.667-10.667-10.667h-79.322
				c-5.892,0-10.667,4.776-10.667,10.667C127.121,308.135,131.898,312.911,137.788,312.911z"/>
			<path d="M356.924,355.581h0.253c5.891,0,10.667-4.777,10.667-10.667c0-5.892-4.777-10.667-10.667-10.667h-0.253
				c-5.892,0-10.667,4.776-10.667,10.667C346.257,350.804,351.033,355.581,356.924,355.581z"/>
			<path d="M137.788,355.577h188.491c5.892,0,10.667-4.777,10.667-10.667c0-5.892-4.776-10.667-10.667-10.667H137.788
				c-5.892,0-10.667,4.776-10.667,10.667C127.121,350.8,131.898,355.577,137.788,355.577z"/>
			<path d="M137.788,398.241h117.333v60.424c0,5.889,4.776,10.667,10.667,10.667c5.891,0,10.667-4.778,10.667-10.667v-60.424h117.33
				c5.892,0,10.667-4.778,10.667-10.667c0.001-5.893-4.775-10.667-10.666-10.667H137.788c-5.892,0-10.667,4.776-10.667,10.667
				C127.121,393.463,131.897,398.241,137.788,398.241z"/>
			<path d="M479.065,194.526c-0.016-0.16-0.046-0.319-0.068-0.477c-0.027-0.186-0.049-0.371-0.084-0.555
				c-0.036-0.181-0.085-0.356-0.13-0.533c-0.041-0.16-0.076-0.321-0.124-0.479c-0.052-0.175-0.117-0.341-0.179-0.512
				c-0.057-0.158-0.109-0.317-0.173-0.473c-0.065-0.158-0.144-0.313-0.217-0.467c-0.075-0.16-0.147-0.323-0.232-0.479
				c-0.079-0.148-0.169-0.289-0.255-0.433c-0.093-0.155-0.18-0.313-0.282-0.463c-0.106-0.159-0.224-0.308-0.337-0.461
				c-0.095-0.125-0.182-0.254-0.284-0.378c-0.222-0.271-0.456-0.529-0.701-0.778c-0.002-0.002-0.004-0.004-0.006-0.006
				c-0.005-0.004-0.012-0.011-0.018-0.015c-0.243-0.244-0.498-0.473-0.764-0.691c-0.121-0.098-0.247-0.183-0.371-0.277
				c-0.155-0.116-0.306-0.236-0.468-0.344c-0.146-0.098-0.298-0.183-0.448-0.273c-0.149-0.09-0.294-0.183-0.449-0.265
				c-0.15-0.081-0.305-0.148-0.459-0.221c-0.161-0.077-0.322-0.158-0.489-0.227c-0.146-0.061-0.295-0.109-0.444-0.162
				c-0.18-0.065-0.358-0.133-0.543-0.19c-0.145-0.044-0.292-0.075-0.438-0.112c-0.191-0.05-0.379-0.102-0.573-0.14
				c-0.164-0.033-0.331-0.052-0.496-0.077c-0.179-0.025-0.355-0.059-0.538-0.077c-0.284-0.027-0.566-0.037-0.852-0.042
				c-0.064-0.002-0.128-0.011-0.194-0.011H131.202L452.288,81.755c0.269-0.085,0.526-0.19,0.782-0.295
				c0.062-0.025,0.125-0.044,0.186-0.068c0.404-0.175,0.788-0.375,1.161-0.592c0.091-0.052,0.177-0.112,0.265-0.166
				c0.292-0.184,0.573-0.377,0.843-0.586c0.094-0.073,0.188-0.142,0.279-0.217c0.334-0.275,0.655-0.564,0.952-0.875
				c0.036-0.039,0.068-0.083,0.107-0.125c0.265-0.288,0.511-0.59,0.74-0.902c0.074-0.1,0.145-0.201,0.214-0.302
				c0.253-0.371,0.491-0.75,0.696-1.146c0,0,0.002-0.004,0.003-0.006c0.005-0.011,0.01-0.022,0.016-0.035
				c0.154-0.3,0.292-0.608,0.418-0.923c0.06-0.153,0.105-0.306,0.157-0.459c0.062-0.177,0.127-0.35,0.178-0.531
				c0.051-0.175,0.086-0.352,0.127-0.529c0.037-0.162,0.08-0.323,0.11-0.487c0.032-0.175,0.05-0.35,0.073-0.527
				c0.022-0.169,0.05-0.339,0.064-0.511c0.014-0.166,0.015-0.332,0.019-0.496c0.007-0.183,0.018-0.367,0.015-0.553
				c-0.003-0.158-0.019-0.317-0.028-0.477c-0.013-0.188-0.019-0.375-0.041-0.564c-0.019-0.175-0.055-0.348-0.084-0.523
				c-0.028-0.169-0.049-0.337-0.085-0.507c-0.066-0.304-0.148-0.604-0.24-0.902c-0.013-0.037-0.019-0.075-0.031-0.112L439.608,7.405
				c-0.864-2.694-2.765-4.934-5.281-6.226c-2.515-1.294-5.444-1.534-8.137-0.669l-60.887,19.562c-0.03,0.011-0.061,0.019-0.09,0.029
				l-81.181,26.08c-0.015,0.004-0.028,0.009-0.043,0.013l-81.111,26.061c-0.07,0.02-0.141,0.044-0.21,0.067l-81.097,26.054
				c-0.029,0.011-0.057,0.019-0.085,0.027l-81.182,26.083c-0.339,0.109-0.673,0.234-1.001,0.375
				c-0.036,0.017-0.07,0.035-0.109,0.052c-0.281,0.125-0.556,0.26-0.826,0.409c-0.046,0.027-0.089,0.057-0.134,0.083
				c-0.256,0.148-0.51,0.3-0.753,0.468c-0.031,0.021-0.06,0.046-0.091,0.068c-0.252,0.179-0.501,0.365-0.738,0.566
				c-0.017,0.015-0.03,0.029-0.047,0.044c-0.245,0.21-0.485,0.431-0.714,0.667c-0.018,0.019-0.032,0.037-0.049,0.057
				c-0.221,0.232-0.435,0.47-0.638,0.725c-0.046,0.059-0.085,0.121-0.129,0.179c-0.166,0.219-0.332,0.437-0.481,0.671
				c-0.192,0.296-0.371,0.604-0.533,0.921c-0.163,0.319-0.31,0.644-0.44,0.973c-0.094,0.238-0.167,0.477-0.243,0.717
				c-0.029,0.094-0.066,0.183-0.092,0.275c-0.084,0.295-0.149,0.594-0.207,0.892c-0.009,0.039-0.02,0.081-0.027,0.121
				c-0.057,0.306-0.093,0.612-0.121,0.916c-0.004,0.039-0.012,0.079-0.015,0.116c-0.022,0.289-0.029,0.579-0.029,0.867
				c0,0.061-0.005,0.121-0.004,0.179c0.005,0.267,0.027,0.531,0.052,0.796c0.007,0.083,0.009,0.166,0.017,0.247
				c0.03,0.254,0.077,0.507,0.125,0.756c0.017,0.092,0.027,0.183,0.046,0.275c0.075,0.339,0.164,0.677,0.271,1.008l19.062,59.331
				v62.338c0,0.262,0.02,0.518,0.039,0.776c0.006,0.085,0.004,0.171,0.013,0.254c0.023,0.254,0.067,0.502,0.109,0.75
				c0.016,0.094,0.025,0.188,0.043,0.282c0.048,0.244,0.111,0.479,0.175,0.717c0.026,0.098,0.047,0.198,0.076,0.295
				c0.067,0.225,0.15,0.446,0.233,0.665c0.041,0.107,0.074,0.214,0.117,0.321c0.085,0.208,0.185,0.409,0.283,0.608
				c0.055,0.114,0.106,0.229,0.163,0.341c0.107,0.198,0.225,0.387,0.341,0.577c0.067,0.107,0.125,0.217,0.195,0.321
				c0.148,0.221,0.309,0.431,0.471,0.642c0.052,0.067,0.096,0.135,0.15,0.201c0.452,0.553,0.957,1.058,1.51,1.51
				c0.079,0.065,0.162,0.118,0.244,0.181c0.194,0.15,0.389,0.3,0.594,0.437c0.122,0.081,0.249,0.15,0.372,0.225
				c0.173,0.107,0.345,0.214,0.524,0.31c0.133,0.07,0.272,0.131,0.409,0.196c0.177,0.085,0.353,0.175,0.536,0.25
				c0.137,0.057,0.276,0.1,0.415,0.153c0.189,0.068,0.375,0.14,0.569,0.198c0.142,0.044,0.287,0.073,0.429,0.111
				c0.193,0.05,0.383,0.102,0.58,0.142c0.172,0.033,0.345,0.054,0.516,0.079c0.171,0.024,0.338,0.057,0.512,0.073
				c0.336,0.033,0.675,0.05,1.012,0.052c0.013,0,0.023,0.002,0.036,0.002h21.331v175.927c0,36.294,29.527,65.823,65.821,65.823
				h231.023c36.294,0,65.821-29.53,65.821-65.823v-175.93h21.331c5.892,0,10.667-4.778,10.667-10.667v-64.003
				C479.119,195.226,479.1,194.876,479.065,194.526z M357.367,206.246l-42.666,42.668H259.54l42.667-42.668H357.367z
				 M272.034,206.246l-42.667,42.668h-55.159l42.666-42.668H272.034z M422.559,24.085l8.435,26.258l-34.692-17.822L422.559,24.085z
				 M367.576,41.748l53.67,27.573l-52.515,16.87l-53.672-27.569L367.576,41.748z M286.33,67.852l53.672,27.569l-52.517,16.872
				l-53.669-27.571L286.33,67.852z M205.094,93.95l53.669,27.571l-52.52,16.874l-53.669-27.571L205.094,93.95z M123.847,120.051
				l53.67,27.571l-52.513,16.87l-53.673-27.569L123.847,120.051z M61.581,155.903l34.695,17.82l-26.259,8.436L61.581,155.903z
				 M73.789,233.826v-27.581h27.581L73.789,233.826z M95.122,248.913h-6.245l42.665-42.668h55.159l-42.666,42.668H95.122z
				 M425.786,446.176c0,24.531-19.957,44.489-44.486,44.489H150.276c-24.53,0-44.486-19.958-44.486-44.489V270.248h319.997V446.176z
				 M400.033,248.913h-55.159l42.666-42.668h55.159L400.033,248.913z M457.784,248.913h-21.331h-6.248l27.579-27.581V248.913z"/>
		</g>
	</g>
</g>
</svg>